# xmcd
# 
# Track frame offsets:
#     150
#     18563
#     32462
#     52157
# 
# Disc length: 940
# 
# Revision: 2
# Processed by: cddbd v1.5.2PL0 Copyright (c) Steve Scherf et al.
# Submitted via: BonkEnc v1.0.8
# 
DISCID=2c03aa04
DTITLE=hi-prix - wipe out - 太陽にほえろのテーマ
DYEAR=2008
DGENRE=Hip-Hop
TTITLE0=wipe out
TTITLE1=太陽にほえろのテーマ
TTITLE2=恋愛の十ヶ条
TTITLE3=wipe out  inst
EXTD=
EXTT0=
EXTT1=
EXTT2=
EXTT3=
PLAYORDER=
